<svg width="145" height="38" viewBox="0 0 145 38" fill="none" xmlns="http://www.w3.org/2000/svg"><path d="M131.897 2.84341V7.09015C132.585 6.21233 133.415 5.95136 134.269 5.95136C136.428 5.95136 137.401 7.4223 137.401 9.65243V13.6619H135.527V9.67615C135.527 8.27639 134.791 7.707 133.795 7.707C132.68 7.707 131.921 8.65599 131.921 9.79478V13.6856H130.046V3.76868C130.046 3.24673 130.45 2.84341 130.972 2.84341H131.897V2.84341ZM140.319 6.04626L140.461 6.92408C141.055 5.97509 141.838 5.83274 142.62 5.83274C143.403 5.83274 144.163 6.14116 144.59 6.56821L143.735 8.20522C143.356 7.87307 143 7.707 142.383 7.707C141.387 7.707 140.485 8.22894 140.485 9.62871V13.6382H138.563V6.97153C138.563 6.44958 138.967 6.04626 139.489 6.04626H140.319ZM39.0143 2.89087V12.3333C40.0107 10.5777 42.8102 9.60498 44.6133 9.60498C49.5955 9.60498 53.2966 12.6418 53.2966 18.5255C53.2966 24.1246 49.5243 27.446 44.5184 27.446C42.4544 27.446 40.3428 26.758 39.0143 24.7177L38.7296 27.0664H34.7912V4.69395C34.7912 3.6975 35.5979 2.86714 36.6181 2.86714H39.0143V2.89087V2.89087ZM39.299 18.5255C39.299 21.6097 41.5765 23.5314 44.2337 23.5314C46.9383 23.5314 49.0736 21.4911 49.0736 18.5255C49.0736 15.4413 46.9383 13.5433 44.2337 13.5433C41.5765 13.5433 39.299 15.5362 39.299 18.5255ZM59.2515 10.0083L59.5599 11.9775C60.8648 9.86595 62.6442 9.55753 64.3761 9.55753C66.1317 9.55753 67.8399 10.2456 68.7651 11.1945L66.8672 14.8719C66.0131 14.1364 65.2064 13.7568 63.8304 13.7568C61.624 13.7568 59.5837 14.9431 59.5837 18.0747V27.0664H55.3606V11.8351C55.3606 10.8387 56.1673 10.0083 57.1874 10.0083H59.2515ZM92.8221 9.34401L94.5065 10.6251L92.6086 13.0451C93.9134 14.5397 94.4117 16.2242 94.4117 18.0985C94.4117 20.21 93.605 23.1756 90.8055 24.4567C93.6525 25.8802 94.3405 27.9205 94.3405 30.1032C94.3405 34.8007 90.7343 37.7189 85.7996 37.7189C80.8648 37.7189 77.1637 34.7058 77.1637 30.1032H81.3393C81.3393 32.3096 83.3796 33.7805 85.7996 33.7805C88.2195 33.7805 90.1175 32.4757 90.1175 30.1032C90.1175 27.7307 87.8873 26.6631 85.7758 26.6868C81.3393 26.7106 77.5433 23.4365 77.1875 19C76.7367 13.14 80.7699 9.46263 85.7996 9.46263C87.1519 9.46263 88.5279 9.6287 89.7141 10.4353L90.3073 9.69988C90.9004 8.89323 92.0392 8.75089 92.8221 9.34401V9.34401ZM81.3393 18.0985C81.3393 21.0641 83.3559 22.8434 85.7996 22.8434C88.2195 22.8434 90.2361 21.0403 90.2361 18.0985C90.2361 15.1566 88.2195 13.2823 85.7996 13.2823C83.3322 13.2823 81.3393 15.1329 81.3393 18.0985ZM101.316 2.84341V12.3096C102.834 10.3404 104.708 9.74733 106.654 9.74733C111.494 9.74733 113.629 13.0451 113.629 18.051V27.0427H109.406V18.0985C109.406 14.9905 107.769 13.6619 105.539 13.6619C103.047 13.6619 101.316 15.7734 101.316 18.3357V27.0427H97.0926V4.67023C97.0926 3.67378 97.8992 2.84341 98.9194 2.84341H101.316V2.84341ZM122.502 5.19217V10.032H127.199V13.6619H122.454V21.0403C122.454 22.6773 123.356 23.4603 124.661 23.4603C125.325 23.4603 126.084 23.2467 126.701 22.9383L127.887 26.5445C126.677 27.019 125.681 27.2325 124.4 27.2799C120.699 27.4223 118.279 25.3108 118.279 21.0641V13.6619H115.1V10.032H118.279V7.27995C118.279 6.35469 118.991 5.57177 119.916 5.47687L122.502 5.19217V5.19217ZM70.9241 11.7639V27.0664H75.1471V9.93713H72.7509C71.7545 9.93713 70.9241 10.7438 70.9241 11.7639ZM75.8351 5.19217C75.8351 8.89323 70.2124 8.89323 70.2124 5.19217C70.2361 1.4911 75.8351 1.4911 75.8351 5.19217ZM25.7284 15.7497C25.42 14.6821 24.3049 14.255 22.4069 14.4211L21.7663 14.4686C20.5801 14.5872 19.0617 14.7295 17.4247 14.8719C22.7865 11.3606 31.7782 6.71056 31.8494 6.68683L31.5172 5.52431C31.3512 4.90747 30.6394 4.69395 29.9514 5.0261C28.2432 5.90392 19.6074 10.6251 15.4318 13.4009C18.4449 6.52076 21.1969 0.779355 21.2444 0.660731L20.0107 0.352311C19.3939 0.186238 18.6584 0.589556 18.35 1.25385C17.3298 3.38908 15.0997 8.20522 12.7509 13.6619C11.3749 11.4555 9.61924 9.58126 8.59908 8.58482C8.17203 8.15777 7.36539 8.25267 6.81972 8.79834L5.79955 9.86595C5.82327 9.88968 8.74142 12.4994 10.6157 15.6548C7.83988 15.9869 5.20643 16.3665 3.23727 16.7936C2.52553 16.9359 1.95613 17.6477 2.00358 18.312L2.07476 19.5694C3.59314 19.1423 5.96562 18.7628 8.57535 18.4069C6.25032 20.21 3.80667 22.2266 1.31556 24.5041C0.769893 25.0024 0.651269 25.7853 1.05459 26.2123L1.88496 27.0664C4.66076 24.4567 7.41284 22.1554 9.99884 20.1625C8.19575 24.6465 6.55874 29.0593 5.68093 32.4045L5.63348 32.5706C5.34878 33.6145 6.41639 34.2076 7.38911 33.5433L7.53146 33.4484C7.86361 33.2111 15.6216 27.8019 20.0344 23.8161C24.5184 19.688 26.1791 17.363 25.7284 15.7497V15.7497ZM18.4923 22.1079C15.8589 24.5042 11.8019 27.5409 9.12102 29.4864C10.2598 26.0463 11.8731 21.8707 13.5813 17.79C16.5706 17.4579 19.4176 17.1969 21.4342 17.0071L22.0748 16.9597C22.6916 16.9122 23 16.9359 23.1424 16.9834C23 17.363 22.2646 18.6916 18.4923 22.1079V22.1079Z" fill="#3b82f6"></path></svg>